<?xml version="1.0" standalone="no"?><!DOCTYPE svg PUBLIC "-//W3C//DTD SVG 1.1//EN" "http://www.w3.org/Graphics/SVG/1.1/DTD/svg11.dtd"><svg t="1631076228305" class="icon" viewBox="0 0 1024 1024" version="1.1" xmlns="http://www.w3.org/2000/svg" p-id="7463" xmlns:xlink="http://www.w3.org/1999/xlink" width="800" height="800"><defs><style type="text/css"></style></defs><path d="M281.035755 558.588517h457.142857c10.212136 0 19.191293 4.764735 25.182041 12.092952 4.695075-19.623184 7.474503-39.998694 7.474503-61.077768 0-144.27951-116.94498-261.22449-261.224489-261.22449-144.272544 0-261.22449 116.94498-261.22449 261.22449 0 21.079075 2.758531 41.454585 7.481469 61.077768 5.990748-7.328218 14.962939-12.099918 25.168109-12.099918z" fill="#F9BA48" p-id="7464"></path><path d="M738.178612 542.260245H281.042721c-27.007129 0-48.984816 21.977687-48.984816 48.984816v293.874068c0 27.007129 21.977687 48.984816 48.97785 48.984817h114.290939v48.97785h-32.656544v32.656544h293.881034v-32.656544h-32.656545v-48.97785h114.283973c27.007129 0 48.984816-21.977687 48.984817-48.984817V591.238095c0-27.000163-21.977687-48.97785-48.984817-48.97785z m-146.933551 440.814585H427.976272v-48.97785h163.268789v48.97785z m163.261823-97.962667a16.342204 16.342204 0 0 1-16.328272 16.328272H281.035755a16.342204 16.342204 0 0 1-16.321306-16.328272V591.245061a16.342204 16.342204 0 0 1 16.321306-16.328272h457.142857a16.342204 16.342204 0 0 1 16.335238 16.328272v293.881034h-0.006966z" fill="#333333" p-id="7465"></path><path d="M281.035755 885.119129h457.142857V591.231129H281.049687v293.881034z m32.656544-261.22449h391.836735v228.567946h-391.836735V623.887673zM264.707483 313.692299v-261.224489C264.707483 25.46068 242.743728 3.482993 215.736599 3.482993H52.46781A49.040544 49.040544 0 0 0 3.482993 52.46781v261.224489c0 27.000163 21.977687 48.97785 48.984817 48.977851h163.261823c27.007129 0 48.984816-21.977687 48.984816-48.984817zM52.474776 36.139537H215.736599a16.342204 16.342204 0 0 1 16.321306 16.328273V264.707483H36.139537V52.46781a16.342204 16.342204 0 0 1 16.328273-16.335239zM215.736599 330.006639H52.460844a16.342204 16.342204 0 0 1-16.321307-16.328272v-16.328272H232.057905v16.328272a16.342204 16.342204 0 0 1-16.328272 16.328272z" fill="#333333" p-id="7466"></path><path d="M134.095238 313.692299m-16.328272 0a16.328272 16.328272 0 1 0 32.656544 0 16.328272 16.328272 0 1 0-32.656544 0Z" fill="#333333" p-id="7467"></path><path d="M983.07483 199.401361V52.46781A49.040544 49.040544 0 0 0 934.09698 3.482993h-228.574912c-27.000163 0-48.970884 21.977687-48.970884 48.984817v146.933551h-32.656545V264.707483a32.684408 32.684408 0 0 0 32.656545 32.656544h326.523646a32.684408 32.684408 0 0 0 32.656544-32.656544v-65.306122h-32.656544zM689.200762 52.46781a16.342204 16.342204 0 0 1 16.328272-16.335239h228.574912a16.342204 16.342204 0 0 1 16.321306 16.335239v146.933551h-114.283973v16.328272h-32.656544v-16.328272H689.214694V52.46781h-0.006966zM983.07483 264.707483H656.551184v-32.656544h114.277006v16.335238h97.962667v-16.328272h114.283973V264.707483zM133.461333 399.889415l-31.346938-9.14634a425.273469 425.273469 0 0 0-16.997007 118.860626 424.507211 424.507211 0 0 0 101.877551 275.741605l24.819809-21.22536a391.892463 391.892463 0 0 1-94.040816-254.516245c0-37.079946 5.273252-73.992707 15.687401-109.714286zM619.338884 133.447401l9.125443-31.346938a425.252571 425.252571 0 0 0-118.860626-16.983075 423.740952 423.740952 0 0 0-220.752109 61.857959l16.997007 27.877877C398.57981 118.282449 514.089796 102.817959 619.34585 133.447401zM861.525333 337.209469c26.48468 53.958531 39.915102 111.971265 39.915102 172.394232a391.885497 391.885497 0 0 1-94.040816 254.509279l24.81981 21.232326a424.500245 424.500245 0 0 0 101.877551-275.741605c0-65.473306-14.558912-128.313469-43.265742-186.792925l-29.305905 14.398693z" fill="#333333" p-id="7468"></path></svg>